#!OML:ASF E:\Steps\Project 1\Capture day 1\Session 2\Subject.ASF
:FULLY-SPECIFIED
:DEGREES
405
root 3.73013 17.0723 16.088 -153.442 -1.8014 176.657
lowerback -31.4207 -2.76322 -8.73194
upperback -2.27804 -1.45041 -0.412121
thorax 13.9181 -1.549 3.57116
lowerneck 0.0313837 -2.15791 -1.15871
upperneck 1.97054 -2.99412 3.8022
head 0.680076 -1.50043 1.34679
rclavicle 7.85199e-015 -3.77691e-014
rhumerus -37.6558 -20.2936 -75.4513
rradius 28.4055
rwrist -1.18962
rhand -3.27249 -54.243
rfingers 7.12502
rthumb 22.4524 -82.9579
lclavicle 7.85199e-015 -3.77691e-014
lhumerus -32.0575 7.64807 78.3318
lradius 19.491
lwrist -6.94534
lhand -20.0173 -11.9159
lfingers 7.12502
lthumb 6.32312 17.9697
rfemur -21.5001 4.73957 19.0516
rtibia 6.04151
rfoot -18.8898 -4.42374
rtoes -15.3301
lfemur -22.6403 -7.57006 -23.6872
ltibia 6.72007
lfoot -6.41634 -3.82826
ltoes -22.276
406
root 3.73274 17.0659 16.0911 -153.182 -1.5527 176.829
lowerback -31.711 -2.68862 -8.65599
upperback -2.34466 -1.3865 -0.364367
thorax 13.9581 -1.52716 3.59893
lowerneck -0.0238404 -2.2009 -1.04374
upperneck 2.1856 -3.05932 3.69988
head 0.753621 -1.53134 1.29282
rclavicle 0 1.35174e-014
rhumerus -37.7709 -20.5524 -75.2225
rradius 28.2198
rwrist -0.915175
rhand -3.52585 -54.5358
rfingers 7.12502
rthumb 22.2092 -83.2798
lclavicle 0 1.35174e-014
lhumerus -31.9211 8.00528 78.1357
lradius 19.0972
lwrist -7.46249
lhand -20.0123 -12.0881
lfingers 7.12502
lthumb 6.32798 17.7974
rfemur -21.9547 4.88803 19.187
rtibia 6.21757
rfoot -18.8197 -4.34273
rtoes -15.8501
lfemur -22.9554 -7.37749 -23.5145
ltibia 6.74396
lfoot -6.55533 -3.59922
ltoes -23.1745
407
root 3.73302 17.0622 16.0919 -153.042 -1.43071 176.991
lowerback -31.8314 -2.64165 -8.53635
upperback -2.41339 -1.38417 -0.30954
thorax 13.9308 -1.52468 3.59204
lowerneck -0.0381939 -2.21305 -1.02737
upperneck 2.3471 -3.08459 3.71251
head 0.806785 -1.54354 1.29309
rclavicle 1.0635e-014 -3.18055e-015
rhumerus -37.8377 -20.7318 -74.9749
rradius 27.9369
rwrist -0.747488
rhand -3.64162 -54.3865
rfingers 7.12502
rthumb 22.0981 -83.1437
lclavicle 1.0635e-014 -3.18055e-015
lhumerus -31.9014 8.34966 77.9566
lradius 18.8263
lwrist -7.94072
lhand -19.9649 -12.0011
lfingers 7.12502
lthumb 6.37372 17.883
rfemur -22.204 5.10158 19.3035
rtibia 6.30387
rfoot -18.8497 -4.37206
rtoes -16.1057
lfemur -23.1584 -7.16904 -23.3526
ltibia 6.81286
lfoot -6.6483 -3.48888
ltoes -23.8344
408
root 3.73056 17.0627 16.0915 -153.056 -1.39753 177.03
lowerback -31.7141 -2.63917 -8.49105
upperback -2.50256 -1.42675 -0.300655
thorax 13.7821 -1.53908 3.56373
lowerneck -0.0862111 -2.21772 -0.920905
upperneck 2.66152 -3.10654 3.65417
head 0.910074 -1.5532 1.25475
rclavicle -3.52843e-015 2.26615e-014
rhumerus -38.0309 -20.8173 -74.7869
rradius 27.7773
rwrist -0.553662
rhand -3.6862 -53.984
rfingers 7.12502
rthumb 22.0553 -82.7464
lclavicle -3.52843e-015 2.26615e-014
lhumerus -32.0451 8.55565 77.7772
lradius 18.7046
lwrist -8.17176
lhand -19.9839 -12.3481
lfingers 7.12502
lthumb 6.35537 17.5366
rfemur -22.2145 5.24624 19.2984
rtibia 6.35767
rfoot -18.9394 -4.44243
rtoes -16.1563
lfemur -23.172 -6.84178 -23.387
ltibia 6.85115
lfoot -6.5041 -3.85005
ltoes -23.3097
409
root 3.72871 17.0635 16.0912 -153.065 -1.33384 177.013
lowerback -31.5928 -2.64396 -8.52708
upperback -2.60695 -1.45401 -0.302993
thorax 13.6116 -1.55173 3.57273
lowerneck -0.0519158 -2.19291 -0.891845
upperneck 2.94901 -3.09176 3.6746
head 0.993486 -1.54633 1.25592
rclavicle -2.13694e-015 -1.98785e-015
rhumerus -38.2716 -20.8637 -74.6134
rradius 27.6362
rwrist -0.356819
rhand -3.79166 -53.4143
rfingers 7.12502
rthumb 21.954 -82.1885
lclavicle -2.13694e-015 -1.98785e-015
lhumerus -32.2246 8.60621 77.6686
lradius 18.6489
lwrist -8.14475
lhand -20.1253 -12.583
lfingers 7.12502
lthumb 6.21888 17.3057
rfemur -22.2384 5.20679 19.2708
rtibia 6.42536
rfoot -18.9318 -4.3765
rtoes -16.119
lfemur -23.166 -6.71935 -23.4548
ltibia 6.87197
lfoot -6.44488 -3.98391
ltoes -23.085
410
root 3.72558 17.0634 16.0894 -153.084 -1.26802 177
lowerback -31.5563 -2.6771 -8.55559
upperback -2.63177 -1.49863 -0.284597
thorax 13.5732 -1.57338 3.59082
lowerneck -0.0886313 -2.15358 -0.885134
upperneck 3.09604 -3.04964 3.71396
head 1.04539 -1.52482 1.26694
rclavicle -9.54166e-015 -1.07344e-014
rhumerus -38.2641 -20.9473 -74.4563
rradius 27.345
rwrist -0.112849
rhand -3.70474 -52.958
rfingers 7.12502
rthumb 22.0375 -81.7224
lclavicle -9.54166e-015 -1.07344e-014
lhumerus -32.2394 8.85442 77.5606
lradius 18.5265
lwrist -8.19534
lhand -20.2616 -12.2576
lfingers 7.12502
lthumb 6.08727 17.635
rfemur -22.2766 5.02723 19.2831
rtibia 6.5466
rfoot -18.9294 -4.21008
rtoes -16.0937
lfemur -23.1141 -6.83964 -23.4782
ltibia 6.85132
lfoot -6.52167 -3.76935
ltoes -23.4394
411
root 3.72174 17.0632 16.0875 -153.1 -1.23491 177.017
lowerback -31.5783 -2.7158 -8.52859
upperback -2.58795 -1.54802 -0.274783
thorax 13.6401 -1.59449 3.56635
lowerneck -0.303094 -2.28142 -0.709535
upperneck 3.18951 -3.0703 3.63282
head 1.1069 -1.46631 1.20999
rclavicle 7.65321e-015 -4.21423e-014
rhumerus -38.1677 -21.0651 -74.395
rradius 27.1398
rwrist 0.00751053
rhand -3.69359 -52.9923
rfingers 7.12502
rthumb 22.0482 -81.7555
lclavicle 7.65321e-015 -4.21423e-014
lhumerus -32.1749 9.09953 77.4474
lradius 18.473
lwrist -8.29161
lhand -20.4684 -11.9158
lfingers 7.12502
lthumb 5.88761 17.9824
rfemur -22.3021 4.88363 19.3296
rtibia 6.64786
rfoot -18.957 -4.12389
rtoes -16.6187
lfemur -23.058 -6.93694 -23.4586
ltibia 6.76969
lfoot -6.48361 -3.65073
ltoes -22.5807
412
root 3.72019 17.0636 16.0877 -153.082 -1.1874 177.031
lowerback -31.8082 -2.71631 -8.49444
upperback -2.45778 -1.513 -0.309334
thorax 13.8842 -1.58186 3.51699
lowerneck -0.44402 -2.31544 -0.558296
upperneck 3.2578 -3.11864 3.59046
head 1.14968 -1.48666 1.16876
rclavicle 4.67144e-015 -1.03368e-014
rhumerus -38.0352 -21.3516 -74.3597
rradius 26.9953
rwrist -0.015283
rhand -3.87227 -53.5059
rfingers 7.12502
rthumb 21.8766 -82.2892
lclavicle 4.67144e-015 -1.03368e-014
lhumerus -31.9902 9.34124 77.3327
lradius 18.4516
lwrist -8.49191
lhand -20.6177 -11.7901
lfingers 7.12502
lthumb 5.74347 18.112
rfemur -22.3453 4.89485 19.3252
rtibia 6.66579
rfoot -18.9659 -4.09144
rtoes -17.1472
lfemur -23.0924 -6.90132 -23.4541
ltibia 6.77452
lfoot -6.41404 -3.67481
ltoes -21.9132
413
root 3.71938 17.0638 16.0878 -153.089 -1.10127 176.993
lowerback -32.2415 -2.73927 -8.49516
upperback -2.17437 -1.44393 -0.36808
thorax 14.3903 -1.56002 3.46745
lowerneck -0.45462 -2.32539 -0.48877
upperneck 3.04603 -3.13105 3.68496
head 1.08602 -1.49399 1.18675
rclavicle 2.78299e-015 2.78299e-015
rhumerus -37.6581 -21.6255 -74.4747
rradius 26.86
rwrist -0.0132167
rhand -4.0929 -54.3484
rfingers 7.12502
rthumb 21.6647 -83.1563
lclavicle 2.78299e-015 2.78299e-015
lhumerus -31.5482 9.92102 77.1313
lradius 18.3148
lwrist -8.8615
lhand -20.5336 -12.0204
lfingers 7.12502
lthumb 5.82464 17.8795
rfemur -22.3492 4.93212 19.2453
rtibia 6.65971
rfoot -18.9407 -4.02866
rtoes -16.8889
lfemur -23.083 -6.78555 -23.5446
ltibia 6.80177
lfoot -6.39428 -3.75783
ltoes -22.4798
414
root 3.7171 17.063 16.0867 -153.113 -1.00307 176.958
lowerback -32.4806 -2.78476 -8.50185
upperback -1.97465 -1.43728 -0.391113
thorax 14.7262 -1.56229 3.44096
lowerneck -0.583731 -2.29723 -0.428582
upperneck 2.87879 -3.0943 3.68272
head 1.05357 -1.47762 1.17526
rclavicle 1.04362e-014 3.57812e-014
rhumerus -37.363 -21.7484 -74.5964
rradius 26.784
rwrist 0.120239
rhand -4.17995 -54.8676
rfingers 7.12502
rthumb 21.5811 -83.6851
lclavicle 1.04362e-014 3.57812e-014
lhumerus -31.2298 10.3825 76.9837
lradius 18.204
lwrist -9.02807
lhand -20.5816 -12.3107
lfingers 7.12502
lthumb 5.77832 17.5905
rfemur -22.2981 4.876 19.1928
rtibia 6.59216
rfoot -18.8543 -3.93773
rtoes -16.652
lfemur -23.0428 -6.81987 -23.6164
ltibia 6.82943
lfoot -6.55354 -3.60239
ltoes -23.0398
